<svg xmlns="http://www.w3.org/2000/svg" width="227" height="192" fill="none"><mask id="a" width="227" height="192" x="0" y="0" maskUnits="userSpaceOnUse" style="mask-type:alpha"><path fill="#fff" d="M48.273.06 226.13 71.78l-48.254 119.666L.019 119.727 48.273.06Z"/></mask><g fill-rule="evenodd" clip-rule="evenodd" mask="url(#a)"><path fill="#FFFFFE" d="M210.011 99.068c-.025-.017-.05-.028-.074-.05a.993.993 0 0 1-.154-.165c.124.025.233.06.247.125.006.03-.004.06-.019.09Zm10.77-14.707.005-.19-.021-.188c-.062-.548-.449-2.379-2.813-2.902-.387-.086-.776-.164-1.165-.243l-.221-.045c-.925-.187-5.079-.955-6.356-1.146-.333-.051-.97-.162-1.706-.291-2.144-.377-3.72-.646-4.45-.69-.36-.02-.761-.074-1.183-.13a44.275 44.275 0 0 0-.768-.097c-.92-.103-1.721.08-2.519.579a4.96 4.96 0 0 0-.676.512 6.156 6.156 0 0 0-.526-.827c-.843-1.105-2.424-1.748-2.491-1.775-.615-.248-2.105-.69-2.713-.783-.557-.086-1.871-.202-2.851-.026-.759.137-2.782.88-3.679 1.637-.16.135-.313.276-.458.423a6.193 6.193 0 0 0-.489-1.01c-.86-1.418-2.197-2.04-3.13-2.387-.28-.103-.703-.262-1.202-.331a21.33 21.33 0 0 1-.791-.148c-.092-.02-.227-.048-.607-.116-.29-.66-.591-1.315-.903-1.964l.733-.641-.804-1.87c-2.315-5.384-5.942-9.77-9.457-13.802-10.039-11.51-23.411-18.363-39.736-20.372-7.866-.968-18.772.656-29.176 4.342-4.955 1.756-16.6 6.468-20.048 12.99a62.845 62.845 0 0 0-8.42 9.27c-.803-.376-2.062-.578-3.597.5l-.045.03a7.458 7.458 0 0 1-.717.448c-.472.252-.841.411-1.14.494l-.078-.16c-1.049-2.19-2.284-4.081-3.669-5.62a47.85 47.85 0 0 0-1.989-2.082c-.72-.707-1.545-1.204-2.207-1.602l-.228-.138c-.875-.531-1.736-.818-2.495-1.072-.23-.077-.46-.153-.687-.237a16.485 16.485 0 0 0-2.762-.748c-2.483-.472-4.9-.31-7.156-.07-1.351.143-2.574.287-3.853.611-1.21.306-2.397.703-3.548 1.186-2.399 1.01-4.525 2.355-6.496 3.645-.5.329-1.082.718-1.643 1.19-.438.367-.815.75-1.147 1.087-.104.105-.206.21-.313.316-.235.233-.48.455-.725.677-.275.25-.55.5-.814.76-1.31 1.28-2.771 3.105-4.345 5.426-1.005 1.483-1.704 2.789-2.445 4.171-.198.37-.403.751-.62 1.15a31.23 31.23 0 0 0-2.69 6.603 42.142 42.142 0 0 0-.847 3.72c-.037.202-.133.661-.24 1.17-.218 1.05-.366 1.767-.425 2.142-.206 1.305-.222 2.556-.22 3.829.002 1.319.048 2.396.146 3.388.272 2.75.99 5.272 2.132 7.492a24.672 24.672 0 0 0 1.694 2.843c.732 1.051 1.471 2.071 2.463 3.001 1.908 1.792 4 2.937 5.795 3.821 2.014.992 4.24 1.645 6.803 2.002.601.083 1.203.158 1.806.221.323.033.624.032 2.46-.118l-.007.014-.03.059c-.168.328-.518 1.011-.505 1.906.022 1.467.923 2.738 2.241 3.163.112.036.252.073.414.102.835.147 2.279.06 3.58-1.699l.478-.643c.626-.839 1.679-2.253 2.186-2.939.57-.773 1.053-1.529 1.52-2.26.188-.297.378-.596.577-.898.164-.25.992-1.341 1.391-1.866l.288-.38c.21.673.474 1.329.79 1.958.371.739.96 1.832 1.783 2.799.896 1.051 1.89 1.82 2.658 2.372 1.015.731 1.884 1.264 2.734 1.68.422.207 1.33.613 2.053.82l.446.131c.449.134.898.265 1.349.392a62.912 62.912 0 0 0 3.476 9.25c1.942 5.765 5.353 11.262 10.725 17.28 9.543 10.694 21.131 17.274 34.538 19.633 2.79.491 5.66.799 8.606.924 17.029.719 32.17-4.738 45.004-16.216 2.565-2.294 5.472-4.895 6.837-9.029l.008-.026a62.982 62.982 0 0 0 2.023-2.663c2.59.432 5.836.962 6.817 1.08.637.076 1.256.156 1.839.275.313.065.626.119.938.171.395.067.765.129 1.075.213.998.269 2.006.498 3.023.686.9.183 1.648.053 2.233-.168.171.186.355.361.56.515a4.49 4.49 0 0 0 1.936.828c1.619.285 3.395-.246 4.505-1.506 1.018-1.157 1.516-2.622 1.334-3.921-.158-1.118-.78-2.075-1.752-2.694a4.613 4.613 0 0 0-1.491-.613c1.279-2.192 1.968-3.628 2.046-4.273a3.05 3.05 0 0 0-1.699-3.14c-1.366-.795-3.287-.73-4.761 1.17-.704.74-4.391 3.257-5.465 3.785-.643.319-1.304.601-1.979.843-.474.168-.849.278-1.134.27-.492-.015-1.037-.103-1.7-.214a85.477 85.477 0 0 0-.879-.144l.035-.089c.107-.272.282-.596.468-.938.086-.157.171-.315.254-.473.206-.388 1.613-2.695 2.543-4.221l.637-1.043c.022.445.135.881.331 1.282a3.24 3.24 0 0 0 2.135 1.734c.983.243 2.033.018 2.889-.614.927-.687 1.468-1.616 1.864-2.295.071-.121.139-.24.208-.349.279-.445.563-.887.846-1.329.183-.284.366-.567.548-.854.228-.358.485-.725.757-1.114.575-.821 1.227-1.753 1.733-2.816l.02-.042c.271-.566.99-2.068.202-3.597a3.086 3.086 0 0 0-1.98-1.588 3.205 3.205 0 0 0-1.831.077l.527-.708c.211-.282.417-.569.621-.856.222-.311.444-.622.677-.925.173-.225.342-.455.511-.687.276-.377.536-.734.79-1.017.097-.108.195-.216.289-.317l.188.029c.686.109 1.375.217 2.053.341a15.74 15.74 0 0 1 2.011.496c.455.149.696.266.821.338.003.112.004.252.004.366v.051c.001.308-.023.535-.075.693-.071.216-.143.431-.216.646a25.957 25.957 0 0 0-.596 1.913l-.044.127c-.333.941-.952 2.694.155 4.206.62.847 1.597 1.312 2.678 1.274 1.767-.06 2.727-1.408 3.088-1.915a.953.953 0 0 0 .057-.084c.518-.602.867-1.227 1.138-1.758.247-.482.615-.995 1.006-1.537.115-.161.231-.322.344-.483.413-.585.773-1.176 1.121-1.746l.196-.32c.497-.807 1.115-1.812 1.453-3.024.294-1.054.252-1.9.047-2.569.142-.001.286.005.428-.005 2.851-.219 5.163-2.503 5.264-5.217a4.431 4.431 0 0 0-1.57-3.525 4.763 4.763 0 0 0-3.975-1.035l-.001-.001c-.104.02-.206.046-.308.075.252-.396.502-.783.759-1.153l.198-.288c.097-.141.193-.282.292-.421.186-.263.366-.53.548-.797.255-.376.495-.73.738-1.054.449-.598.841-1.194 1.22-1.77.134-.203.265-.403.395-.597.086.232.198.453.337.662a3.081 3.081 0 0 0 2.043 1.332c.567.1 2.427.227 3.525-2.038l.008-.016c.045-.076.111-.179.186-.3.769-1.224 1.241-2.024 1.264-2.998Z"/><path fill="#fff" d="M181.622 110.353c-5.763 32.633-36.854 54.439-69.446 48.705-32.59-5.735-54.34-36.838-48.577-69.471 5.763-32.633 36.854-54.438 69.445-48.703 32.592 5.734 54.34 36.837 48.578 69.47"/></g><path fill="#000" fill-rule="evenodd" d="M133.003 41.202c-2.897-.287-5.712-.784-8.533-.798-6.175-.033-5.427-.654-4.418 5.32.023.134.171.245.341.477 4.519-.39 9.933 1.81 12.61-5Zm-16.263-.81-14.205 3.932c1.162 1.453 1.947 2.497 2.803 3.477.324.37.868.908 1.212.84 3.752-.733 7.484-1.573 11.377-2.417l-1.187-5.832Zm15.406 5.895c12.902 1.695 24.353 6.246 34.485 14.107-1.029-1.487-2.112-2.88-3.362-4.1-6.431-6.286-14.082-10.484-22.62-13.15-4.266-1.33-5.413-.97-8.503 3.143ZM82.591 56.438c1.694-8.814 30.248-19.672 47.027-17.635 14.963 1.816 27.911 7.895 37.928 19.44 3.482 4.012 6.864 8.175 8.967 13.111l-.739.65c-.657-.518-1.406-.953-1.959-1.566-10.964-12.144-24.556-19.312-40.71-21.615-.76-.108-2.131.036-2.272.415-.314.843-.335 2.077.08 2.845.684 1.264 1.689 2.42 2.768 3.384 3.924 3.506 7.951 6.895 11.899 10.374.864.762 1.56 1.713 2.334 2.577l-.532.682c-.604-.3-1.3-.49-1.797-.914a1298.867 1298.867 0 0 1-13.721-11.818c-2.26-1.977-4.251-4.153-3.551-7.86-2.363.035-4.437-.05-6.474.193-.433.053-1.092 1.346-1.029 2.004.371 3.87.943 7.719 1.401 11.58.093.78-.009 1.583-.021 2.376l-.803.213c-.32-.826-.785-1.627-.933-2.484a333.024 333.024 0 0 1-1.775-11.293c-.221-1.61-.802-2.408-2.553-2.035-1.283.274-2.617.29-3.904.549-1.515.304-3.422.318-4.377 1.26-.824.812-.549 2.75-.764 4.19-.32 2.15-.798 4.196-3.862 5.395 1.122-3.12 2.632-5.627 1.249-8.863l-14.072 6.432-.614-.838c.667-.647 1.233-1.493 2.02-1.906 3.232-1.695 6.53-3.26 9.807-4.87.611-.3 1.231-.58 1.848-.869-1.879-3.974-2.914-4.56-6.328-2.5-4.039 2.436-7.814 5.32-11.667 8.062-.84.597-1.528 1.407-2.286 2.12l-.585-.785Zm47.617 64.993 5.195 36.993c13.619-3.105 24.453-10.095 33.558-20.167-1.116 3.38-3.59 5.624-6.032 7.81-12.223 10.943-26.567 16.183-42.92 15.5-16.417-.685-30.134-7.315-41.064-19.576-5.127-5.751-9.424-12.037-11.128-19.878 7.128 14.329 17.016 25.83 32.055 32.346-6.566-12.874-10.76-18.795-11.629-33.281l1.041-.35c.289.766.764 1.514.838 2.3 1.226 12.937 4.706 17.479 10.82 28.824 1.695 3.144 3.924 4.928 7.518 5.728 7.463 1.661 14.902 2.421 22.521 1.528 2.055-.242 2.727-.875 2.412-3.057-1.488-10.328-2.82-20.679-4.181-31.026-.154-1.17-.148-2.362-.215-3.544l1.211-.15ZM62.496 65.608c.508 1.067.985 2.17 1.297 3.31.258.94.452 1.911.406 2.88-.012.265-.045 1.31-.08 1.595-.049.397-.112.79-.188 1.181-.083.426-.163.851-.239 1.277-.051.29-.122.728.272.809.401.083.582-.448.743-.723.273-.461.601-.833.937-1.247l.898-1.11c.734-.903 1.41-1.816 2.11-2.745.58-.767 2.398-3.32 2.585-3.857.138-.394.636-.908.216-1.286-.338-.304-.727.008-1.022.21-.32.22-.646.427-.991.61-.961.507-1.954.914-3.058.875-.465-.016-1.257-.203-1.463-.661-.173-.387-.36-.766-.546-1.148-.86-1.778-1.922-3.49-3.255-4.96a45.518 45.518 0 0 0-1.885-1.962c-.554-.542-1.28-.95-1.94-1.349-.85-.515-1.803-.743-2.723-1.086a14.086 14.086 0 0 0-2.318-.626c-2.102-.4-4.255-.273-6.37-.055-1.168.12-2.338.248-3.478.532a22.284 22.284 0 0 0-3.161 1.043c-2.159.898-4.113 2.117-6.064 3.385-.475.309-.944.622-1.38.985-.46.384-.865.823-1.291 1.243-.504.497-1.049.951-1.557 1.445-1.416 1.375-2.885 3.357-3.986 4.976-1.183 1.739-1.915 3.232-2.925 5.077a27.99 27.99 0 0 0-2.442 5.995 38.91 38.91 0 0 0-.785 3.465c-.095.521-.56 2.673-.647 3.24-.175 1.122-.183 2.251-.179 3.384.005 1.039.037 2.08.142 3.114.23 2.257.81 4.461 1.862 6.482.448.875.955 1.719 1.516 2.526.634.903 1.288 1.807 2.099 2.564 1.532 1.432 3.276 2.44 5.15 3.361 1.904.937 3.888 1.462 5.985 1.757.572.081 1.146.152 1.721.214.24.024 2.152-.136 2.305-.146.3-.019.596-.091.898-.096a2.19 2.19 0 0 1 1.538.577c.234.21.488 1.019.478 1.283-.013.338-.005.649-.112 1.26-.082.468-.303.811-.412 1.033-.1.204-.252.453-.249.689.008.44.406 1.032 1.21-.05.179-.239 1.955-2.611 2.663-3.565.736-.992 1.33-1.989 2.009-3.02.32-.488 1.757-2.341 2.123-2.836.257-.347.772-1.139.914-1.577.13-.405-.5-.701-.98-.567-.44.122-.858.59-1.217.86-.47.352-.97.668-1.466.982-.972.614-1.992 1.279-3.092 1.632a17.095 17.095 0 0 1-3.45.733c-1.2.123-2.297.236-3.499.206-1.167-.028-2.155-.029-3.294-.319-.26-.066-.865-.298-1.08-.454-.218-.159-.413-.4-.585-.606-.345-.412-.625-.877-.885-1.345a24.188 24.188 0 0 1-1.181-2.401 18.65 18.65 0 0 1-1.392-6.494c-.07-2.31.421-4.608.87-6.86.43-2.157 1.035-4.233 1.881-6.262.81-1.944 1.629-3.608 2.806-5.343.754-1.112 1.643-2.285 2.375-3.411 1.19-1.83 2.735-3.61 4.123-5.298 1.257-1.528 2.565-2.992 4.004-4.354 1.6-1.513 3.224-3.003 5.042-4.257.896-.618 1.82-1.231 2.847-1.61.462-.17.944-.347 1.437-.393a7.122 7.122 0 0 1 1.657.06c.552.079 1.15.167 1.66.394.489.217.968.467 1.429.734.727.423 1.37 1.212 1.93 1.837.601.672 1.071 1.432 1.537 2.198.413.68.822 1.36 1.192 2.066Z" clip-rule="evenodd"/><path fill="#000" fill-rule="evenodd" d="M79.936 95.309a20.497 20.497 0 0 1-1.323 3.408c-.706 1.412-1.455 2.817-2.322 4.134-.498.757-.894 1.573-1.388 2.331-.479.737-1.027 1.41-1.612 2.064-1.039 1.163-2.133 2.281-3.505 3.048-1.443.806-2.621.884-4.624.824-1.369-.222-2.996-.679-3.71-2.026-.872-1.641-.792-3.62-.495-5.398.217-1.299.488-2.619 1.02-3.83a42.247 42.247 0 0 1 2.278-4.441c1.577-2.681 3.296-5.33 5.498-7.543 1.2-1.205 2.614-2.171 4.111-2.97.742-.397 1.513-.778 2.36-.88.361-.043.756-.07 1.106.05.201.068.475.178.659.283.053.03.791.55.933.693.17.17.33.51.44.722.203.388.345.754.499 1.162.3.795.394 1.621.492 2.468.113.969.055 1.967.019 2.939-.034 1-.18 1.994-.436 2.962Zm.412 14.038c1.328-1.247 2.465-2.622 3.582-4.058.966-1.244 1.864-2.487 2.547-3.911.424-.887.867-1.8 1.213-2.72.33-.876.52-1.793.67-2.72.284-1.758.208-3.579-.308-5.286a29.11 29.11 0 0 0-1.02-2.798c-.34-.812-.792-1.555-1.304-2.274a11.075 11.075 0 0 0-1.55-1.727c-.66-.6-1.292-1.129-2.049-1.597-.767-.475-1.576-1.066-2.427-1.373-.803-.289-1.657-.542-2.498-.684a12.933 12.933 0 0 0-2.81-.182c-.445.019-.955.04-1.402.063a9.25 9.25 0 0 0-1.384.194c-1.84.377-3.68 1.109-5.342 1.978-.822.431-1.759.867-2.522 1.396-.75.52-1.442.939-2.204 1.444-1.43.947-2.73 2.108-3.871 3.39-1.02 1.145-1.892 2.168-2.588 3.41-.518.923-.828 1.858-1.142 2.806a15.482 15.482 0 0 0-.63 2.753c-.229 1.67-.402 3.321-.366 5.005.02.953.234 1.968.41 2.907.154.831.458 1.623.837 2.376.389.774.84 1.564 1.405 2.225.631.74 1.364 1.337 2.151 1.903.734.528 1.505 1.032 2.319 1.43.426.209 1.135.511 1.59.641.386.111 1.697.509 2.121.609.506.119 1.15.252 1.662.332.984.154 1.8.131 2.792.007.967-.122 1.908-.354 2.84-.637.466-.142.92-.318 1.385-.466.423-.135.848-.257 1.25-.435.325-.145.678-.305 1.013-.427.447-.162.836-.355 1.262-.564.856-.417 1.657-.938 2.43-1.488.666-.473 1.341-.963 1.938-1.522Zm63.697-13.248c.521.175.897.381 1.229.828.319.43.555.892.503 1.446-.106 1.127-.42 2.302-.751 3.381-.152.497-.361.954-.554 1.433-.073.18-.148.381-.047.566.099.18.297.237.483.158.393-.167.702-.761.933-1.099.123-.179 2.162-3.187 2.869-4.204.382-.556.784-1.099 1.203-1.627.247-.308.555-.62.689-.999.172-.484-.032-1.006-.442-1.285-.688-.468-4.455-.9-5.456-1.05-.882-.133-4.662-.792-5.674-.973-1.051-.187-2.091-.44-3.15-.584-1.096-.147-2.176-.35-3.269-.513a55.822 55.822 0 0 1-3.392-.604c-.491-.105-.974-.203-1.477-.231-.212-.012-.967-.018-1.116.18-.482.64.954.809 1.087 1.23.096.303-.194.843-.312 1.126-.185.44-.349.89-.592 1.303-.486.831-.914 1.705-1.434 2.516-.414.645-.855 1.285-1.23 1.956-.166.298-.324.601-.492.898a.263.263 0 0 0 .031-.015c-.429.652-.77 1.362-1.184 2.025-.475.762-.997 1.493-1.463 2.262a74.789 74.789 0 0 0-1.84 3.223c-.374.693-.717 1.399-1.07 2.104-.353.706-.757 1.388-1.113 2.094-.48.956-2.969 5.399-3.799 6.621-.403.593-.742 1.22-1.179 1.788-.558.728-1.332 1.088-2.176 1.378-.267.093-.558.142-.792.31-.335.24-.347.638-.009.872.303.211.706.269 1.059.345.347.075.696.145 1.042.223.882.199 8.523 1.259 8.857 1.296.193.021.386.071.579.1.247.036.529.079.766-.026.367-.164.448-.596.237-.918-.184-.28-.494-.44-.706-.689-.282-.332-.313-.756-.221-1.168.074-.339 7.971-14.232 8.006-14.298.018-.111.073-.131.162-.064.202 0 .476.152.67.214.178.058.357.114.536.169.291.089.582.17.874.252.478.134.985.236 1.432.453.328.159.628.419.634.806.005.367-.087.728-.127 1.09-.035.322-.378 1.673.208 1.632.382-.027.696-.649.858-.935.182-.319.372-.634.548-.957.834-1.538 1.903-2.929 2.707-4.489.115-.222.525-.826.348-1.087-.215-.316-.686.211-.848.355-.643.576-1.29 1.206-2.059 1.608a4.062 4.062 0 0 1-1.182.416c-.362.061-.694-.048-1.041-.137-.384-.098-.77-.196-1.154-.298-.583-.156-1.149-.345-1.732-.525.402-.612 2.111-3.765 2.274-4.087.501-.988 1.097-1.938 1.658-2.893.341-.581.638-1.188.944-1.787.248-.485.499-1.031.829-1.463l-.031.025c.183-.274.42-.78.7-.948.262-.159.644-.196.941-.216a5.216 5.216 0 0 1 1.156.044c.381.06.757.191 1.136.268.823.17 1.641.306 2.453.526.822.222 1.655.415 2.473.649Zm-28.522-6.162c.658.224 1.253.685 1.73 1.185.253.265.489.56.645.895.09.195.125.3.078.515l-.033.154c-.124.582-1.077 2.936-1.261 3.195-.28.396-.924 1.139-.369 1.584.54.435 1.104-.301 1.392-.691.647-.88 1.188-1.86 1.796-2.768.219-.326.405-.673.661-.97.173-.198.33-.41.49-.62.34-.446.629-.929.986-1.36.335-.403 1.074-1.069.871-1.66-.179-.52-.83-.633-1.295-.705-.552-.086-1.105-.09-1.654-.192-.561-.106-1.129-.174-1.694-.254-.771-.11-1.539-.186-2.303-.336-.376-.075-.752-.145-1.127-.22-2.008-.405-4.05-.656-6.064-1.029-2.146-.397-4.327-.63-6.455-1.13-1.137-.267-2.387-.679-3.575-.575-.254.022-.64.073-.605.416.03.284.338.37.486.565.263.343.495.888.466 1.319-.033.476-.082.942-.311 1.37-.2.374-.411.744-.625 1.111-.434.745-.853 1.494-1.311 2.225-.55.876-1.047 1.779-1.614 2.644-.77 1.176-1.57 2.323-2.283 3.534a374.155 374.155 0 0 1-3.89 6.457c-.533.864-6.39 10.081-7.01 10.717-.513.527-1.194.504-1.856.685-.266.073-.602.17-.662.489-.069.364.298.496.577.566.402.1.814.131 1.221.199.655.11 8.458 1.697 8.987 1.811.494.106 1.35.364 1.683.245.25-.09.35-.357.27-.609-.08-.261-.329-.403-.542-.544-.181-.121-.37-.235-.468-.438-.177-.362-.146-.822-.044-1.199a7.54 7.54 0 0 1 .725-1.703c.338-.594.675-1.189 1.035-1.77.347-.559 1.221-2.014 1.27-2.079.08-.103.47-.711.602-.901.735-1.063 1.397-2.164 2.1-3.246.45-.693 1.835-2.656 2.052-2.958.352-.489.663-1.148 1.217-1.425.177-.089.473-.343.655-.374.184-.033.492.105.672.141.264.053.531.097.795.148.442.085.879.19 1.321.273.183.035.365.069.546.106l.232.05c.124.026.539.036.614.128.056.07.021.357.018.464-.006.151-.03.291-.077.435-.107.324-.298.601-.456.899-.155.292-.781 1.428-.089 1.426.596-.001 1.253-.725 1.607-1.139.307-.36.599-.742.874-1.129.345-.496.674-1.003.985-1.521.391-.638.849-1.292 1.026-2.032.113-.472.09-1.39-.582-.881-.538.408-.868 1.055-1.446 1.413l.051-.022c-.34.19-.653.423-.983.629l.027-.01c-.077.045-.154.098-.235.137-.221.106-.516.084-.757.074-.323-.014-.655-.109-.977-.161-.817-.134-1.886-.199-2.389-.949l-.109-.166c-.087-.134-.123-.158-.07-.302.094-.262.312-.525.45-.765.194-.338.387-.674.563-1.02.365-.717.732-1.429 1.111-2.137.978-1.826 1.997-3.656 3.3-5.275a92.215 92.215 0 0 1 1.649-1.994c.124-.145.181-.247.361-.26.097-.007.201.01.299.012.485.015.96.033 1.439.11 1.602.262 3.181.624 4.754 1.033l-.068-.024c.2.06.401.119.6.185Zm49.391 31.847c.017-.14-.036-.273-.19-.306-.114-.024-.536-.617-1.309.403-.725.956-5.119 3.912-6.399 4.543-.738.366-1.496.688-2.27.966-.703.251-1.391.453-2.146.429-.691-.021-1.388-.134-2.069-.249-.856-.143-2.524-.403-2.497-.412-.338-.136-.885-.247-1.188-.567-.128-.135-.115-.575-.114-.755.001-.795.554-1.535.836-2.257.23-.587.554-1.127.846-1.684.396-.758 4.06-6.687 4.302-7.145.245-.465.52-.918.785-1.371.073-.124.134-.304.258-.341.126-.037.344.023.483.031.525.031 1.046.109 1.567.183.46.066.914.169 1.362.293.185.052.363.076.487.205.158.161.209.373.195.593-.03.482-.233 1.005-.385 1.463-.118.354-.273.694-.394 1.047-.113.333-.368.792-.2 1.137.175.359.582.303.854.101.592-.439.977-1.259 1.362-1.874.46-.736.934-1.461 1.399-2.194.764-1.202 1.704-2.33 2.318-3.62.132-.277.421-.844.261-1.154-.192-.373-.671-.055-.897.099-.8.54-1.344 1.351-2.058 1.984-.35.312-.789.594-1.248.699-.473.107-.936.003-1.401-.096-.598-.128-1.202-.227-1.803-.343a16.567 16.567 0 0 0-.991-.151c.792-1.143 4.38-6.022 5.375-7.352.446-.596.862-1.215 1.316-1.805.472-.615.911-1.279 1.427-1.857.269-.301 1.049-1.152 1.283-1.276.098-.052.7-.03.816-.044.154-.017.386.06.539.084.819.13 1.642.255 2.459.406a18.22 18.22 0 0 1 2.36.584c1.011.328 2.183.845 2.572 1.925.17.474.166.966.167 1.464.001.532-.047 1.056-.214 1.564-.265.812-.562 1.607-.773 2.436-.1.391-.886 2.091.008 2.061.508-.018.833-.695 1.12-1.028.308-.359.546-.775.766-1.206.427-.835 1.01-1.586 1.549-2.349.432-.613.824-1.274 1.216-1.913.445-.725.906-1.478 1.137-2.304.118-.418.22-.968-.13-1.303-.296-.286-2.638-.56-3.375-.686-.82-.139-1.636-.29-2.458-.412-.33-.05-7.746-1.361-8.733-1.56-.876-.175-6.151-1.377-6.589-1.524-.226-.076-.69-.314-.844.021a.547.547 0 0 0-.051.282c.015.025.057.168.091.219.121.188.32.58.34.704.038.23.052.457.031.688-.033.373-.222.572-.443.856-.425.55-.859 1.092-1.271 1.652-.925 1.255-1.766 2.566-2.642 3.855-.956 1.407-2.012 2.746-2.947 4.165-.693 1.052-1.315 2.168-1.925 3.27-.456.824-1.008 1.577-1.523 2.364-.41.634-.8 1.281-1.169 1.939-.443.777-.902 1.546-1.476 2.235-.362.434-3.314 5.303-3.624 5.926-.147.302-.307.598-.479.886-.187.304-.356.752-.705.906-.464.202-.934.39-1.409.564-.28.103-.599.176-.808.404-.292.318-.181.738.199.905.61.266 1.376.265 2.034.336.694.075 1.375.198 2.059.332 1.262.247 10.282 1.762 11.873 1.953.692.083 1.381.171 2.064.312.725.15 1.457.227 2.172.421.923.248 1.857.46 2.797.634.353.067.676.033.989-.165.3-.19.896-1.298 1.032-1.565.195-.38 1.253-2.62 1.672-3.314.484-.801 2.335-4.069 2.369-4.347ZM90.56 66.442c-.515 1.416-1.903 2.342-3.361 2.59-.526.089-1.002.032-1.525-.01-.419-.034-.848.004-1.262-.052-.435-.058-.87-.13-1.308-.16.773-.948 1.428-2.005 2.14-3 .594-.826 1.172-1.744 1.995-2.368.352-.268.922-.565 1.37-.502.523.073.965.202 1.401.506.443.309.731.692.8 1.235.076.602-.076 1.188-.25 1.761Zm-3.747 5.663a11.97 11.97 0 0 1-1.083 2.243c-.471.757-1.17 1.407-2.026 1.686-.815.264-1.787.348-2.639.277-.757-.063-1.493-.297-2.244-.413.663-1.355 1.444-2.684 2.258-3.953.418-.651.756-1.358 1.19-1.995.098-.144.169-.329.326-.355.116-.019.322.05.444.067a38.58 38.58 0 0 0 1.61.21c.546.058 1.293.055 1.714.452.518.488.635 1.114.45 1.78Zm7.63-6.534c-.041-.298-.085-.607-.23-.867a7.418 7.418 0 0 0-.484-.783c-.375-.51-1.01-.78-1.588-.984-.745-.263-4.455-.921-4.961-1.015-.573-.108-1.143-.225-1.717-.32-.75-.125-1.494-.287-2.25-.383-.297-.038-1.406-.312-1.07.262.027.045.073.083.104.141.043.078.062.18.092.264.045.124.092.246.14.368.117.299.164.464.01.757-.269.511-.688.963-1.038 1.419l-.645.84c-.37.483-.727.972-1.063 1.48-.55.83-1.164 1.61-1.718 2.434-.6.892-1.165 1.815-1.796 2.684-.537.738-1.115 1.446-1.65 2.183-.186.256-.348.528-.518.795-.292.459-.816.5-1.27.71-.194.09-.247.313-.042.43.102.058.302.072.418.09.423.07.852.1 1.276.16l.368.05c.045.007.112.003.152.022.102.048 1.548.297 1.802.343.236.045 2.025.327 2.248.364.289.045.576.1.861.164.875.207 1.733.438 2.622.575 1.27.195 2.585.499 3.876.455a10.145 10.145 0 0 0 1.568-.191c.277-.055.538-.142.762-.318.093-.072.323-.193.394-.288.07-.09.447-.537.6-.702.188-.201.29-.477.436-.71.222-.352.385-.774.522-1.162.45-1.268.682-2.58-.068-3.784-.297-.477-.715-.805-1.217-1.049.387-.01.816-.135 1.183-.235.692-.188 1.369-.53 1.967-.924 1.05-.69 2.115-1.92 1.923-3.275Zm18.592.91c.167-.096.319-.283.264-.485-.058-.21-.283-.189-.469-.233-.497-.118-1.888-.335-1.999-.371-.264-.088-.642-.124-.909-.2-.408-.115-.967-.25-1.391-.136-.368.097-.458.415-.183.71.32.345.898.38 1.262.679.533.436-.226 1.43-.454 1.894-.244.498-2.775 4.529-3.392 5.407-.564.804-1.089 1.623-1.753 2.351-.698.766-1.469 1.447-2.367 1.968-.8.464-1.892.959-2.819.57a1.963 1.963 0 0 1-.584-.394 7.403 7.403 0 0 1-.225-.222c-.075-.076-.2-.813-.161-.953.065-.23.135-.461.208-.69.265-.832.71-1.802 1.097-2.655.396-.875.808-1.75 1.254-2.602.584-1.112 1.23-2.193 1.856-3.283.19-.332.403-.646.612-.965.213-.325.422-.726.767-.932.396-.236 2.114-.314 1.653-1.14-.163-.293-.533-.337-.827-.405-.26-.06-.53-.097-.803-.165-.841-.209-1.712-.294-2.565-.452-.625-.115-1.215-.268-1.847-.345-.21-.026-.826-.185-.889.152-.016.086.03.154.016.239-.014.085.308.48.445.61l.277.267c.047.052.08.161.096.226.04.16.015.181-.078.333l.032-.04c-.625.93-1.203 1.89-1.733 2.878-.322.6-.62 1.214-.952 1.81-.25.452-.526.891-.76 1.352-.552 1.088-1.099 2.215-1.544 3.35-.246.628-.452 1.3-.371 1.982.078.66.422 1.226.92 1.659.427.372.912.654 1.421.9.328.157.658.234.982.383.254.116 1.037.32 1.16.33.174.013.346.054.521.064.35.021.748.084 1.097.047.679-.073 1.346-.123 1.976-.392 2.034-.866 4.355-3.668 5.612-6.082.387-.744.793-1.479 1.192-2.216.396-.732.874-1.417 1.235-2.17.156-.324.307-.65.462-.976l.264-.549c.061-.128.226-.507.34-.597.186-.145.586-.084.827-.13.426-.079.847-.164 1.226-.381h.001Zm18.117 3.3c-.159-.421-.938-.435-1.298-.508-.584-.12-1.166-.24-1.756-.328a18.285 18.285 0 0 1-1.566-.284c-.401-.096-.799-.198-1.202-.276-1.604-.307-3.24-.442-4.845-.75-.407-.077-.815-.155-1.222-.234-.784-.154-1.566-.203-2.355-.3-.499-.062-.998-.129-1.497-.184-.212-.023-.425-.079-.626.001-.204.08-.405.247-.568.393a3.526 3.526 0 0 0-.517.601c-.164.23-.405.403-.584.633-.215.276-.582.928-.001 1.044.301.06.624-.184.867-.33.237-.143.468-.295.697-.452.553-.378 1.068-.723 1.752-.77.627-.044 1.272.058 1.888.165.294.052.587.11.882.158.156.026.782.037.85.165-.096.433-.538.85-.815 1.185a24.42 24.42 0 0 0-1.021 1.343 104.8 104.8 0 0 0-1.897 2.757 75.532 75.532 0 0 0-1.702 2.661c-.204.335-.422.662-.628.996-.184.299-1.471 2.251-1.922 2.927-.297.445-.668.823-1.189.989-.384.121-.858.114-1.153.43-.426.455.062.82.503.917.531.116 1.096.138 1.637.182.938.077 1.879.2 2.802.378.683.131 1.359.297 2.045.415.368.064.727.18 1.095.234.516.078.964-.267.722-.816-.139-.317-.569-.58-.652-.904-.097-.383.177-.806.354-1.117.262-.462.555-.897.839-1.345.745-1.169 1.465-2.353 2.25-3.495.996-1.45 2.05-2.865 2.985-4.356.254-.406.522-.8.816-1.178.175-.223.354-.443.536-.66.088-.106.248-.403.383-.46.049-.02.132.015.19.029.296.069.594.13.891.193.459.1.907.203 1.372.269.261.035.519.098.767.188.209.077.248.152.254.379.011.431-.231.854-.286 1.283-.061.474.335.846.629.348.259-.438.543-.87.8-1.313.177-.303.646-.822.496-1.204Zm23.514 4.464c.094.23.143.459.161.707.018.22-.034.541.12.722.36.418.764-.323.953-.552.253-.31.883-.893.772-1.34-.059-.239-.271-.247-.471-.295-.271-.062-.534-.158-.804-.229-1.148-.298-11.942-1.968-13.049-2.125a12.526 12.526 0 0 1-.608-.095c-.04-.008-.132-.016-.174-.035-.046-.024-.567-.084-.697-.042-.202.064-.373.114-.415.356-.045.268.159.487.364.624.105.07.435.177.472.286.047.142-.186.522-.245.649-.135.29-.273.575-.394.871-.782 1.908-1.912 3.66-2.957 5.43-.297.502-.536 1.036-.841 1.533-.297.484-.588.97-.879 1.457-.254.424-.512.855-.799 1.257-.161.224-.692 1.11-.865 1.329-.203.257-.359.326-.673.4-.247.058-.502.117-.733.225-.421.199-.671.657-.141.888.459.202.989.263 1.469.398.344.097 5.148.718 5.175.736.202.124.444.077.544-.156.156-.363-.198-.646-.459-.827-.152-.105-.28-.145-.285-.323-.005-.214.259-.561.357-.744a61.082 61.082 0 0 1 1.915-3.293c.418-.68.83-1.36 1.238-2.045.105-.177.216-.352.327-.524.046-.07.114-.231.18-.273.099-.065.3.005.432.026.607.1 1.216.185 1.823.286a39.4 39.4 0 0 0 1.639.234c.367.067-.218.859.083.998.315.145.574-.276.754-.464.207-.219 1.24-1.555.709-1.603-.321-.03-.512.31-1.204.262-.392-.026-.686-.095-1.074-.141-.884-.105-1.731-.331-2.587-.57.307-.474.628-.937.924-1.418l-.034.043c.531-.777 1.006-1.59 1.522-2.378.387-.588.907-1.715 1.72-1.724.272-.004 2.92.331 3.453.445.596.127 3.128.576 3.181.639.037.04.07.32.101.395Zm11.487 3.277c.511-.664 1.445-.503 2.165-.741.259-.086.593-.244.661-.541.036-.163-.031-.31-.141-.422-.048-.048-.144-.135-.219-.142-.088-.008-.546-.048-.7-.088-.191-.05-3.702-.52-4.586-.648-.814-.117-3.292-.631-3.743-.624-.128.003-.478-.096-.635 0-.074.066-.104.133-.079.094-.047.072-.064.114-.052.209.008.063.076.144.119.187.191.202.36.392.568.572.267.229.449.325.399.72-.052.406-.262.807-.447 1.166-.604 1.172-3.378 5.771-4.126 6.96-.331.525-1.872 3.205-2.199 3.516.117-.115-.091.062-.144.094-.113.07-.235.127-.354.184-.312.149-.637.242-.96.364-.294.11-1.428.441-.924.95.215.218 3.2.642 3.861.813.636.164 4.256.69 4.558.75.236.046.5.137.694-.068.442-.47-.339-.799-.629-1.007-.049-.035-.149-.088-.188-.141-.069-.094-.064-.082-.024-.214.025-.083.053-.165.083-.246.095-.254.223-.498.354-.735.28-.509.536-1.031.84-1.527l-.028.03c.553-.81 2.197-3.713 2.552-4.317.507-.86.992-1.734 1.564-2.553.594-.851 1.126-1.775 1.76-2.595Zm7.885 4.972c.635-.964 1.157-1.984 1.834-2.922.279-.388.521-.799.789-1.194.087-.128.169-.26.266-.38.05-.06.227-.305.313-.34.198-.078.425-.031.969.19.51.169 1.085.51 1.339 1.02.258.517.147 1.187-.01 1.722-.115.392-.341.703-.574 1.029a7.972 7.972 0 0 1-.998 1.189c-.225.212-.461.412-.698.61-.116.098-.231.195-.348.29-.066.053-.3.29-.379.285-.133-.01-.436-.332-.564-.413-.163-.101-.361-.26-.535-.339-.526-.239-1.012-.38-1.529-.561a2.24 2.24 0 0 0 .125-.186Zm7.641 10.288c.03-.169-.001-.395-.19-.45-.198-.057-.372.15-.473.292-.255.355-.262.78-.691 1.013-.328.177-.892.227-1.246.186-.438-.052-.691-.518-.848-.918-.6-1.528-.154-2.984-.194-4.554-.03-1.193-.404-2.323-.919-3.384a10.146 10.146 0 0 0 2.349-.501c.735-.26 1.503-.455 2.198-.82 1.154-.602 2.092-1.516 2.348-2.829l.017-.092c-.041.234.014-.1.017-.122.008-.069.012-.137.013-.206 0-.174-.019-.347-.056-.516a3.828 3.828 0 0 0-.428-1.123c-.381-.635-1.038-.975-1.71-1.223a3.15 3.15 0 0 0-.652-.19 25.311 25.311 0 0 1-.987-.182c-.732-.162-8.597-1.414-8.673-1.444-.151-.06-.301-.017-.457.025-.307.081-.237.33.017.46.251.13.545.192.805.32.148.072.296.08.286.245-.008.11-.118.276-.165.382-.129.29-.277.567-.432.845-.46.825-.979 1.623-1.486 2.419-.435.683-1.915 3.08-2.236 3.591-.297.474-2.518 4.289-2.977 5.028a9 9 0 0 1-.453.676 2.467 2.467 0 0 1-.494.485c-.128.092-.208.11-.358.185-.152.075-.481.214-.458.39.013.107.087.128.165.159.119.048.285.085.416.117.251.063.51.1.766.138.482.073 2.701.538 3.329.69.327.08 1.586.353 1.694-.074.068-.27-.239-.399-.365-.59-.163-.25-.193-.49-.127-.782.125-.563.532-1.043.814-1.537.977-1.717 2.133-3.357 3.273-4.967l.094-.132c.129-.184.129-.216.305-.08.278.211.524.51.646.844.269.74.114 1.577.062 2.343-.056.818-.058 1.63-.062 2.45-.003.778-.107 1.558-.058 2.334.048.77.249 1.544.723 2.157.436.564 1.063.96 1.704 1.25.721.327 1.453.367 2.23.225.682-.125 1.485-.346 2.021-.812.538-.468.772-1.048.902-1.721h.001Z" clip-rule="evenodd"/><path fill="#000" fill-rule="evenodd" d="M197.582 86.82c.332-.494.658-.986.961-1.498.145-.242.284-.49.418-.74.094-.175.16-.408-.069-.518-.234-.112-.333.1-.469.233-.196.193-.909.431-1.121.135-.091-.127-.07-.44-.084-.598-.025-.303-.05-.608-.103-.908-.127-.712-.35-1.415-.8-2-.244-.317-.963-.742-1.337-.892-.486-.195-1.773-.57-2.132-.626-.501-.079-1.458-.132-1.959-.043-.486.085-2.006.689-2.404 1.023-.807.675-1.258 1.552-1.429 2.579-.203 1.208-.011 2.464.377 3.62.375 1.115.783 2.28 1.13 3.364l.041.134c-.061-.183.003.012.01.043.022.078.044.157.063.236a3.51 3.51 0 0 1 .112 1.348c-.067.636-.209 1.248-.54 1.8-.291.485-.733.942-1.34.945-.677.004-1.142-.355-1.549-.859a7.492 7.492 0 0 1-1.426-2.963c-.22-.938-.222-1.93-.486-2.855-.062-.217-.132-.313-.35-.212-.141.066-.768 1.01-.861 1.12-.573.67-1.078 1.461-1.522 2.22-.141.242-.288.482-.437.72-.119.19-.188.395-.309.578-.086.132-.207.245-.147.417.097.272.367.19.544.075.226-.145.446-.303.67-.452.401-.266 1.027-.737 1.544-.66.181.029.636.707.805.918.201.25.339.615.492.9.239.447.561.87.875 1.269.188.239 1.006 1.088 1.154 1.158.316.148.65.302.977.424.991.37 2.192.25 3.221.13 1.085-.127 2.161-.664 2.771-1.58.661-.993 1.026-2.184.856-3.384-.083-.577-.298-1.115-.377-1.69-.089-.646-.257-1.274-.414-1.907-.293-1.185-.618-2.331-.771-3.544-.073-.574-.229-1.25-.097-1.825.128-.56.581-1.064 1.151-1.114.248-.02.631-.036.851.086.284.157.537.339.757.575.416.446.793.94 1.102 1.474.537.928.54 2.045.445 3.08-.029.313-.072.625-.093.94-.01.176-.066.418.01.579.171.362.569-.159.686-.343.195-.308.399-.611.603-.913Zm-9.105 3.138-.012-.038.012.038Zm29.219-5.373c-.036-.328-.364-.425-.635-.486-.438-.096-.879-.182-1.319-.27-.869-.176-4.944-.923-6.131-1.099-1.031-.152-4.9-.879-5.828-.931-.691-.04-1.381-.156-2.07-.232-.304-.034-.462.01-.724.174a2.738 2.738 0 0 0-.504.43c-.15.158-.331.472-.449.596-.137.142-.508.573-.606.744-.2.347-.296.56.067.719.342.15.757-.18 1.037-.352.375-.23.727-.493 1.098-.728.742-.469 1.494-.49 2.341-.395.403.045 2.321.292 2.491.398.18.115-.136.458-.246.607-.271.367-.576.705-.858 1.063-.52.664-1.001 1.368-1.477 2.065-.921 1.35-1.841 2.705-2.692 4.1-.156.256-.319.505-.483.755-.133.203-2.18 3.517-2.656 3.917a2.155 2.155 0 0 1-.881.44c-.321.078-.687.113-.941.349-.311.289-.22.676.14.848.344.166.774.172 1.146.21.776.081 4.539.785 5.699.991.46.081 1.513.424 1.816-.133.192-.355-.076-.722-.291-.982-.133-.162-.348-.327-.373-.54-.062-.536.349-1.074.618-1.52.201-.335.428-.653.638-.982.642-1.008 1.256-2.044 1.935-3.028.167-.242.331-.486.5-.726.444-.63.86-1.289 1.322-1.904.903-1.206 1.625-2.533 2.581-3.7.13-.158.261-.315.393-.472.027-.034.134-.2.186-.223.153-.066 2.619.506 2.96.598.36.1.548.146.526.552-.019.334-.179.68-.251 1.007-.057.256-.123.723.231.787.311.056.469-.42.591-.639.205-.369 1.09-1.668 1.1-2.008h-.001Zm-5.114 14.104c-.001-1.132-1.224-1.907-2.34-1.738-1.014.155-2.014 1.678-.639 2.205.132.05.604.07.638.204.05.194-.478.381-.605.438-.461.203-.939.189-1.421.309-.174.044-.405.171-.286.375.093.159.452.266.617.325.436.155.897.227 1.359.21 1.355-.055 2.668-1.002 2.677-2.328Zm-18.002 35.509c-.894-.569-2.104-.294-2.888.322-.435.342-.807.76-.769 1.337.031.475.248.917.633 1.206.789.593 2.207.417 2.844-.305.597-.674 1.169-1.932.18-2.56Zm-.362-7.558c.017-.139-.036-.272-.19-.306-.114-.024-.536-.617-1.309.404-.724.955-5.118 3.911-6.399 4.542-.738.366-1.496.689-2.27.967-.703.25-1.391.452-2.147.429-.691-.021-1.387-.135-2.068-.249-.856-.145-2.524-.404-2.497-.413-.338-.135-.885-.247-1.188-.566-.128-.135-.114-.576-.114-.756.001-.795.553-1.534.836-2.257.23-.586.555-1.126.846-1.683.396-.759 4.061-6.687 4.302-7.146.245-.465.521-.918.786-1.371.072-.123.133-.303.257-.34.126-.037.344.023.483.03.525.031 1.046.11 1.567.184.459.066.914.168 1.362.292.185.052.363.077.487.205.158.161.209.373.195.593-.03.482-.233 1.005-.385 1.463-.118.354-.273.694-.394 1.048-.113.332-.368.792-.2 1.136.175.359.582.303.854.101.592-.438.977-1.259 1.362-1.873.46-.737.934-1.461 1.399-2.194.764-1.202 1.704-2.331 2.318-3.621.132-.277.42-.844.261-1.154-.191-.372-.671-.055-.897.099-.8.54-1.344 1.351-2.058 1.985-.35.311-.788.594-1.249.698-.472.107-.935.003-1.4-.096-.598-.128-1.202-.226-1.803-.343a17.418 17.418 0 0 0-.991-.151c.792-1.142 4.38-6.022 5.375-7.352.446-.596.862-1.215 1.315-1.804.474-.615.912-1.28 1.428-1.858.269-.301 1.049-1.151 1.282-1.276.099-.052.701-.031.817-.043.154-.018.386.059.539.083.82.129 1.642.255 2.459.405.799.142 1.587.337 2.36.585 1.011.328 2.183.845 2.572 1.925.17.474.166.967.167 1.464.001.532-.048 1.056-.214 1.565-.265.811-.562 1.607-.773 2.435-.1.391-.886 2.091.008 2.061.509-.018.833-.694 1.121-1.028.307-.358.545-.775.765-1.205.427-.835 1.01-1.586 1.549-2.35.432-.612.824-1.274 1.216-1.912.445-.726.906-1.478 1.138-2.305.117-.418.218-.968-.131-1.303-.296-.286-2.638-.561-3.375-.686-.82-.138-1.636-.29-2.458-.412-.33-.049-7.746-1.361-8.734-1.559-.875-.176-6.15-1.378-6.588-1.525-.226-.075-.689-.313-.844.022a.543.543 0 0 0-.051.281c.015.025.057.169.091.219.121.188.32.58.34.705.038.228.052.456.031.687-.033.373-.222.572-.443.857-.425.549-.859 1.091-1.271 1.65-.925 1.256-1.765 2.568-2.641 3.857-.956 1.406-2.013 2.745-2.948 4.164-.693 1.053-1.314 2.168-1.924 3.27-.458.824-1.009 1.577-1.523 2.364-.41.634-.8 1.281-1.17 1.939-.444.777-.902 1.546-1.476 2.235-.362.435-3.314 5.304-3.624 5.926-.15.302-.303.599-.479.886-.187.304-.356.752-.705.906-.464.202-.934.39-1.41.564-.279.103-.598.176-.807.404-.292.318-.181.738.199.905.61.267 1.376.265 2.034.336.694.075 1.375.199 2.059.332 1.262.247 10.282 1.762 11.873 1.953.692.083 1.382.171 2.064.312.726.15 1.457.227 2.172.421.923.248 1.857.46 2.797.634.353.068.676.033.989-.165.3-.19.896-1.298 1.032-1.565.194-.381 1.253-2.62 1.672-3.313.484-.802 2.335-4.07 2.369-4.348" clip-rule="evenodd"/></svg>